{"title":"Godzilla 2014 BDRip 1080p Dual Audio [ Hindi ORG BD 5.1-Eng 5.1]","uid":11021567,"size":4139605346,"categoryP":"video","categoryS":"hd___movies","magnet":"?xt=urn:btih:2e8b5486699163fe9b71be8e931d8b9b97fb3954&amp;dn=Godzilla+2014+BDRip+1080p+Dual+Audio+%5B+Hindi+ORG+BD+5.1-Eng+5.1%5D&amp;tr=udp%3A%2F%2Ftracker.openbittorrent.com%3A80&amp;tr=udp%3A%2F%2Fopen.demonii.com%3A1337&amp;tr=udp%3A%2F%2Ftracker.coppersurfer.tk%3A6969&amp;tr=udp%3A%2F%2Fexodus.desync.com%3A6969","seeders":3,"leechers":1,"uploader":"inovai","files":4,"time":1410591933,"description":"Godzilla 2014 BDRip 1080p [Dual Audio] [Hindi ORG BD 5.1- Eng 5.1][SumoMan]\n\nCover:\n   &lt;a href=&quot;\nhttp://forum.primetimeshow.in/viewtopic.php?f=7&amp;t=562&quot; rel=&quot;nofollow&quot; target=&quot;_NEW&quot;&gt;\nhttp://forum.primetimeshow.in/viewtopic.php?f=7&amp;t=562&lt;/a&gt;\n\nScreenshots:\n &lt;a href=&quot;\nhttp://m.primetimeshow.in/share-3BDA_5413CFB8.html&quot; rel=&quot;nofollow&quot; target=&quot;_NEW&quot;&gt;\nhttp://m.primetimeshow.in/share-3BDA_5413CFB8.html&lt;/a&gt;\n &lt;a href=&quot;\nhttp://m.primetimeshow.in/share-95F2_5413CFB8.html&quot; rel=&quot;nofollow&quot; target=&quot;_NEW&quot;&gt;\nhttp://m.primetimeshow.in/share-95F2_5413CFB8.html&lt;/a&gt;\n &lt;a href=&quot;\nhttp://m.primetimeshow.in/share-8A07_5413CFB8.html&quot; rel=&quot;nofollow&quot; target=&quot;_NEW&quot;&gt;\nhttp://m.primetimeshow.in/share-8A07_5413CFB8.html&lt;/a&gt;\n &lt;a href=&quot;\nhttp://m.primetimeshow.in/share-2E24_5413CFB8.html&quot; rel=&quot;nofollow&quot; target=&quot;_NEW&quot;&gt;\nhttp://m.primetimeshow.in/share-2E24_5413CFB8.html&lt;/a&gt;\n &lt;a href=&quot;\nhttp://m.primetimeshow.in/share-B868_5413CFB8.html&quot; rel=&quot;nofollow&quot; target=&quot;_NEW&quot;&gt;\nhttp://m.primetimeshow.in/share-B868_5413CFB8.html&lt;/a&gt;\n\nFormat : Matroska\nFormat version : Version 4 / Version 2\nFile size : 3.78 GiB\nDuration : 2h 3mn\nOverall bit rate : 4 398 Kbps\nMovie name : Godzilla 2014 BDRip 1080p Dual Audio [ Hindi ORG BD 5.1-Eng 5.1][SumoMan]\n\n\nVideo\nID : 1\nFormat : AVC\nFormat/Info : Advanced Video Codec\nFormat profile : &lt;a class=&quot;__cf_email__&quot; href=&quot;/cdn-cgi/l/email-protection&quot; data-cfemail=&quot;e6ae8f818ea6aad2c8d7&quot;&gt;[email&amp;#160;protected]&lt;/a&gt;&lt;script cf-hash='f9e31' type=&quot;text/javascript&quot;&gt;\n/* &lt;![CDATA[ */!function(){try{var t=&quot;currentScript&quot;in document?document.currentScript:function(){for(var t=document.getElementsByTagName(&quot;script&quot;),e=t.length;e--;)if(t[e].getAttribute(&quot;cf-hash&quot;))return t[e]}();if(t&amp;&amp;t.previousSibling){var e,r,n,i,c=t.previousSibling,a=c.getAttribute(&quot;data-cfemail&quot;);if(a){for(e=&quot;&quot;,r=parseInt(a.substr(0,2),16),n=2;a.length-n;n+=2)i=parseInt(a.substr(n,2),16)^r,e+=String.fromCharCode(i);e=document.createTextNode(e),c.parentNode.replaceChild(e,c)}}}catch(u){}}();/* ]]&gt; */&lt;/script&gt;\nFormat settings, CABAC : Yes\nFormat settings, ReFrames : 5 frames\nCodec ID : V_MPEG4/ISO/AVC\nDuration : 2h 3mn\nBit rate : 3 500 Kbps\nWidth : 1 920 pixels\nHeight : 800 pixels\nDisplay aspect ratio : 2.40:1\nFrame rate mode : Constant\nFrame rate : 23.976 fps\nColor space : YUV\nChroma subsampling : 4:2:0\nBit depth : 8 bits\nScan type : Progressive\nBits/(Pixel*Frame) : 0.095\nStream size : 2.94 GiB (78%)\nWriting library : x264 core 142 r2431\n\nAudio #1\nID : 2\nFormat : AC-3\nFormat/Info : Audio Coding 3\nMode extension : CM (complete main)\nFormat settings, Endianness : Big\nCodec ID : A_AC3\nDuration : 2h 3mn\nBit rate mode : Constant\nBit rate : 448 Kbps\nChannel(s) : 6 channels\nChannel positions : Front: L C R, Side: L R, LFE\nSampling rate : 48.0 KHz\nBit depth : 16 bits\nCompression mode : Lossy\nStream size : 395 MiB (10%)\nTitle : ORG BD 5.1 [SumoMan]\nLanguage : Hindi\nDefault : Yes\nForced : No\n\nAudio #2\nID : 3\nFormat : AC-3\nFormat/Info : Audio Coding 3\nMode extension : CM (complete main)\nFormat settings, Endianness : Big\nCodec ID : A_AC3\nDuration : 2h 3mn\nBit rate mode : Constant\nBit rate : 448 Kbps\nChannel(s) : 6 channels\nChannel positions : Front: L C R, Side: L R, LFE\nSampling rate : 48.0 KHz\nBit depth : 16 bits\nCompression mode : Lossy\nStream size : 395 MiB (10%)\nTitle : DD 5.1 [SumoMan]\nLanguage : English\nDefault : No\nForced : No\n\nText #1\nID : 4\nFormat : UTF-8\nCodec ID : S_TEXT/UTF8\nCodec ID/Info : UTF-8 Plain Text\nTitle : [SumoMan]\nLanguage : English\nDefault : No\nForced : No\n\nText #2\nID : 5\nFormat : UTF-8\nCodec ID : S_TEXT/UTF8\nCodec ID/Info : UTF-8 Plain Text\nTitle : SDH [SumoMan]\nLanguage : English\nDefault : No\nForced : No\n\nText #3\nID : 6\nFormat : UTF-8\nCodec ID : S_TEXT/UTF8\nCodec ID/Info : UTF-8 Plain Text\nTitle : SDH-COLORED [SumoMan]\nLanguage : English\nDefault : No\nForced : No\n\nMenu\n00:00:00.000 : en:00:00:00.000\n00:09:22.562 : en:00:09:22.562\n00:19:03.225 : en:00:19:03.225\n00:30:25.532 : en:00:30:25.532\n00:39:10.098 : en:00:39:10.098\n00:49:43.439 : en:00:49:43.439\n00:59:27.189 : en:00:59:27.189\n01:09:50.186 : en:01:09:50.186\n01:19:11.246 : en:01:19:11.246\n01:29:57.267 : en:01:29:57.267\n01:40:14.759 : en:01:40:14.759\n01:52:14.728 : en:01:52:14.728\n01:56:10.088 : en:01:56:10.088\n\nBig Thank You To Tariq Bhai For Help !!! You R Gr8t\n\nThanks to SumoMan!!\n\nSeed n Enjoy!","torrent":{"xt":"urn:btih:2e8b5486699163fe9b71be8e931d8b9b97fb3954","amp;dn":"Godzilla+2014+BDRip+1080p+Dual+Audio+%5B+Hindi+ORG+BD+5.1-Eng+5.1%5D","amp;tr":["udp%3A%2F%2Ftracker.openbittorrent.com%3A80","udp%3A%2F%2Fopen.demonii.com%3A1337","udp%3A%2F%2Ftracker.coppersurfer.tk%3A6969","udp%3A%2F%2Fexodus.desync.com%3A6969"],"infoHash":"2e8b5486699163fe9b71be8e931d8b9b97fb3954","infoHashBuffer":{"type":"Buffer","data":[46,139,84,134,105,145,99,254,155,113,190,142,147,29,139,155,151,251,57,84]},"announce":[],"urlList":[]}}